PathFileType	4	(X/Y/Z)
DataRate	CameraRate	NumFrames	NumMarkers	Units	OrigDataRate	OrigDataStartFrame	OrigNumFrames	
	120.0	120.0	7	39	mm	120.0	26	201
Frame#	Time	midhip	hip_r	hip_l	knee_r	knee_l	ankle_r	ankle_l	midasis	asis_r	asis_l	psis_r	psis_l	epicondLat_r	epicondLat_l	epicondMed_r	epicondMed_l	malleolusLat_r	malleolusLat_l	malleolusMedv_r	malleolusMedv_l	heel_r	heel_l	sternalnotch	xyphoidprocess	neck	subclavicle_r	subclavicle_l	toe_r	toe_l	thighwand_r	thighwand_l	upperleg1_r	upperleg1_l	upperleg2_r	upperleg2_l	shankwand_r	shankwand_l	lowerleg1_r	lowerleg1_l
	X1	Y1	Z1	X2	Y2	Z2	X3	Y3	Z3	X4	Y4	Z4	X5	Y5	Z5	X6	Y6	Z6	X7	Y7	Z7	X8	Y8	Z8	X9	Y9	Z9	X10	Y10	Z10	X11	Y11	Z11	X12	Y12	Z12	X13	Y13	Z13	X14	Y14	Z14	X15	Y15	Z15	X16	Y16	Z16	X17	Y17	Z17	X18	Y18	Z18	X19	Y19	Z19	X20	Y20	Z20	X21	Y21	Z21	X22	Y22	Z22	X23	Y23	Z23	X24	Y24	Z24	X25	Y25	Z25	X26	Y26	Z26	X27	Y27	Z27	X28	Y28	Z28	X29	Y29	Z29	X30	Y30	Z30	X31	Y31	Z31	X32	Y32	Z32	X33	Y33	Z33	X34	Y34	Z34	X35	Y35	Z35	X36	Y36	Z36	X37	Y37	Z37	X38	Y38	Z38	X39	Y39	Z39

	26	0.21667	741.759	785.338	-243.683	720.638	790.692	-164.484	720.882	791.075	-320.112	720.024	419.658	-152.977	732.615	429.344	-333.018	716.198	59.032	-116.687	726.416	56.734	-368.687	855.542	853.260	-241.933	855.349	852.956	-118.880	855.735	853.563	-364.986	618.298	943.199	-207.517	613.153	941.983	-262.016	726.651	421.916	-79.812	725.697	431.729	-406.153	709.310	423.498	-224.890	726.251	410.854	-257.248	705.870	63.061	-77.734	702.359	60.352	-402.308	721.935	66.733	-152.635	721.932	72.012	-325.667	653.500	50.138	-124.671	672.347	47.279	-334.414	777.403	1289.214	-264.153	835.929	1220.723	-264.713	657.844	1351.651	-247.731	795.533	1296.440	-211.937	792.613	1296.046	-293.268	824.770	43.904	-104.849	821.911	48.400	-383.417	886.370	574.760	-88.554	907.563	606.916	-346.680	847.392	596.314	-109.347	860.068	622.059	-350.257	820.312	523.736	-113.667	841.309	550.125	-350.871	799.178	208.981	-103.421	686.110	175.294	-460.090	753.454	214.555	-116.626	691.903	184.323	-411.772
	27	0.22500	741.856	785.302	-243.669	720.731	790.652	-164.467	720.967	791.077	-320.096	720.004	419.720	-153.008	732.562	429.302	-333.037	716.152	59.051	-116.677	726.412	56.733	-368.650	855.636	853.229	-241.906	855.449	852.893	-118.830	855.824	853.565	-364.983	618.484	943.186	-207.575	613.191	941.966	-262.011	726.641	421.968	-79.842	725.680	431.698	-406.175	709.852	422.876	-224.311	727.201	410.012	-257.774	705.829	63.085	-77.723	702.372	60.345	-402.284	721.962	66.730	-152.619	721.816	72.045	-325.616	653.500	50.138	-124.671	672.336	47.288	-334.407	777.397	1289.228	-264.153	835.866	1220.688	-264.711	657.977	1351.729	-247.747	795.533	1296.440	-211.937	792.613	1296.046	-293.268	824.666	43.851	-104.677	821.955	48.408	-383.331	886.415	574.699	-88.545	907.578	606.876	-346.653	847.437	596.300	-109.351	860.097	622.078	-350.168	820.678	523.890	-113.440	841.639	550.047	-350.998	799.206	208.988	-103.419	686.141	175.321	-460.140	753.480	214.587	-116.677	691.858	184.302	-411.813
	28	0.23333	741.954	785.263	-243.657	720.828	790.612	-164.452	721.052	791.068	-320.081	719.954	419.778	-153.034	732.528	429.269	-333.039	716.110	59.074	-116.644	726.417	56.730	-368.612	855.732	853.195	-241.890	855.555	852.834	-118.803	855.909	853.556	-364.977	618.676	943.162	-207.623	613.199	941.954	-262.017	726.623	422.015	-79.871	725.668	431.671	-406.179	710.339	422.455	-224.033	727.901	409.618	-257.949	705.805	63.114	-77.686	702.387	60.337	-402.254	721.903	66.826	-152.597	721.956	71.985	-325.611	653.495	50.139	-124.668	672.324	47.300	-334.396	777.408	1289.211	-264.111	835.835	1220.636	-264.642	657.977	1351.808	-247.744	795.534	1296.422	-211.921	792.637	1296.015	-293.194	824.597	43.813	-104.577	821.995	48.422	-383.268	886.456	574.666	-88.536	907.592	606.833	-346.628	847.525	596.274	-109.358	860.143	622.153	-350.111	820.974	523.969	-113.316	841.915	550.141	-351.024	799.241	209.012	-103.413	686.192	175.356	-460.173	753.719	214.629	-116.559	692.006	184.255	-411.758
	29	0.24167	742.057	785.227	-243.642	720.930	790.583	-164.436	721.142	791.047	-320.064	719.885	419.815	-153.051	732.524	429.255	-333.018	716.069	59.088	-116.616	726.436	56.725	-368.581	855.828	853.170	-241.881	855.660	852.803	-118.801	855.995	853.536	-364.960	618.832	943.141	-207.648	613.180	941.944	-262.036	726.604	422.042	-79.893	725.664	431.658	-406.158	709.239	423.293	-224.195	727.932	409.461	-258.140	705.791	63.133	-77.651	702.405	60.329	-402.223	721.871	66.807	-152.557	722.107	71.926	-325.608	653.490	50.139	-124.666	672.314	47.307	-334.385	777.482	1289.191	-264.126	835.915	1220.619	-264.622	657.964	1351.797	-247.742	795.538	1296.370	-211.910	792.750	1296.014	-293.182	824.570	43.792	-104.542	822.027	48.449	-383.249	886.505	574.649	-88.555	907.604	606.790	-346.618	847.570	596.261	-109.362	860.097	622.078	-350.168	820.489	523.878	-113.411	841.945	550.089	-351.092	799.272	209.032	-103.402	686.240	175.397	-460.188	753.733	214.567	-116.515	692.155	184.208	-411.703
	30	0.25000	742.152	785.202	-243.633	721.024	790.574	-164.427	721.230	791.020	-320.055	719.817	419.826	-153.062	732.577	429.303	-332.985	716.028	59.094	-116.615	726.473	56.715	-368.560	855.916	853.158	-241.884	855.753	852.805	-118.835	856.079	853.510	-364.933	618.896	943.150	-207.635	613.139	941.948	-262.061	726.586	422.047	-79.908	725.687	431.702	-406.122	707.577	424.109	-223.586	727.540	409.566	-258.138	705.777	63.140	-77.643	702.429	60.321	-402.193	721.883	66.731	-152.530	721.948	71.990	-325.539	653.489	50.143	-124.663	672.304	47.304	-334.376	777.592	1289.177	-264.305	836.056	1220.631	-264.741	658.276	1351.618	-247.656	795.542	1296.320	-211.934	792.912	1296.031	-293.437	824.555	43.777	-104.531	822.053	48.482	-383.255	886.559	574.637	-88.606	907.617	606.748	-346.629	847.559	596.256	-109.395	860.052	622.004	-350.225	819.864	523.950	-113.262	841.780	549.930	-351.114	799.258	209.031	-103.398	686.267	175.429	-460.177	753.617	214.489	-116.553	692.061	184.266	-411.720
	31	0.25833	742.226	785.190	-243.652	721.092	790.575	-164.448	721.305	790.999	-320.076	719.760	419.807	-153.063	732.644	429.389	-332.947	715.995	59.093	-116.620	726.508	56.706	-368.546	855.988	853.147	-241.907	855.820	852.812	-118.912	856.157	853.483	-364.903	618.836	943.199	-207.570	613.089	941.975	-262.085	726.569	422.029	-79.913	725.718	431.775	-406.081	707.214	423.932	-222.772	726.965	410.131	-257.637	705.765	63.138	-77.643	702.449	60.314	-402.167	722.000	66.594	-152.493	721.733	72.145	-325.476	653.494	50.150	-124.659	672.296	47.293	-334.368	777.651	1289.162	-264.440	836.072	1220.580	-264.791	658.780	1351.510	-247.593	795.544	1296.304	-211.953	793.007	1296.001	-293.648	824.529	43.764	-104.521	822.078	48.502	-383.243	886.613	574.630	-88.670	907.633	606.701	-346.659	847.621	596.247	-109.473	860.068	622.059	-350.257	819.855	524.079	-113.013	841.540	549.879	-350.984	799.189	209.007	-103.397	686.283	175.432	-460.126	753.507	214.394	-116.661	691.903	184.343	-411.854
	32	0.26667	742.278	785.189	-243.698	721.139	790.576	-164.496	721.368	790.990	-320.124	719.709	419.760	-153.056	732.638	429.427	-332.903	715.974	59.085	-116.622	726.519	56.701	-368.527	856.046	853.136	-241.946	855.866	852.809	-119.024	856.227	853.463	-364.868	618.667	943.281	-207.460	613.057	942.021	-262.101	726.551	421.990	-79.909	725.712	431.796	-406.037	707.557	423.577	-222.514	726.948	410.216	-257.544	705.761	63.129	-77.640	702.459	60.309	-402.148	722.107	66.480	-152.463	721.787	72.213	-325.479	653.501	50.157	-124.656	672.293	47.275	-334.360	777.817	1289.188	-264.297	836.233	1220.601	-264.756	659.071	1351.519	-247.614	795.852	1296.365	-211.843	793.096	1296.005	-293.573	824.508	43.760	-104.518	822.102	48.497	-383.203	886.667	574.632	-88.740	907.655	606.647	-346.699	847.773	596.263	-109.550	860.090	622.069	-350.298	820.084	524.065	-112.946	841.540	549.879	-350.984	799.102	208.973	-103.387	686.288	175.420	-460.050	753.343	214.353	-116.783	691.918	184.320	-411.956
